<?xml version="1.0" encoding="utf-8"?>
<!-- Generator: Adobe Illustrator 15.0.0, SVG Export Plug-In . SVG Version: 6.00 Build 0)  -->
<!DOCTYPE svg PUBLIC "-//W3C//DTD SVG 1.1//EN" "http://www.w3.org/Graphics/SVG/1.1/DTD/svg11.dtd">
<svg version="1.1"
	 id="svg2" xmlns:svg="http://www.w3.org/2000/svg" xmlns:rdf="http://www.w3.org/1999/02/22-rdf-syntax-ns#" sodipodi:docname="marker.svg" xmlns:cc="http://creativecommons.org/ns#" xmlns:inkscape="http://www.inkscape.org/namespaces/inkscape" xmlns:sodipodi="http://sodipodi.sourceforge.net/DTD/sodipodi-0.dtd" xmlns:dc="http://purl.org/dc/elements/1.1/" inkscape:version="0.48.2 r9819"
	 xmlns="http://www.w3.org/2000/svg" xmlns:xlink="http://www.w3.org/1999/xlink" x="0px" y="0px" width="744.094px"
	 height="1052.361px" viewBox="0 0 744.094 1052.361" enable-background="new 0 0 744.094 1052.361" xml:space="preserve">
<sodipodi:namedview  id="base" pagecolor="#ffffff" inkscape:zoom="16.000001" bordercolor="#666666" inkscape:pageshadow="2" borderopacity="1.0" inkscape:pageopacity="0.0" inkscape:cx="418.3474" inkscape:cy="537.41791" inkscape:document-units="px" inkscape:current-layer="layer1" showgrid="true" inkscape:window-width="1931" inkscape:window-height="1374" inkscape:window-x="705" inkscape:window-y="45" inkscape:window-maximized="0" showguides="true" inkscape:guide-bbox="true">
	<sodipodi:guide  id="guide3897" position="367.51875,543.94189" orientation="0,1"></sodipodi:guide>
	<inkscape:grid  type="xygrid" id="grid3842"></inkscape:grid>
</sodipodi:namedview>
<g id="layer1" inkscape:groupmode="layer" inkscape:label="Layer 1">
	
		<image overflow="visible" enable-background="new    " width="25" height="41" id="image2993" xlink:href="86A9A19E.png"  inkscape:export-filename="C:\Users\dave.STK\Desktop\path3868.png" inkscape:export-xdpi="644.65582" inkscape:export-ydpi="644.65582" transform="matrix(1 0 0 1 369.3752 502.2375)">
	</image>
	
		<rect id="rect3771" x="404" y="502.362" inkscape:export-filename="C:\Users\dave.STK\Desktop\git\Leaflet\Leaflet\dist\images\marker-icon@2x.png" inkscape:export-xdpi="180" inkscape:export-ydpi="180" fill="#FFFFFF" fill-opacity="0" width="25" height="41">
	</rect>
	
		<rect id="rect3773" x="410.279" y="507.574" inkscape:export-filename="C:\Users\dave.STK\Desktop\git\Leaflet\Leaflet\dist\images\marker-icon@2x.png" inkscape:export-xdpi="180" inkscape:export-ydpi="180" fill="#FFFFFF" width="12.625" height="14.5">
	</rect>
	
		<path id="path3873" inkscape:export-filename="C:\Users\dave.STK\Desktop\git\Leaflet\Leaflet\dist\images\marker-icon@2x.png" inkscape:export-xdpi="180" inkscape:export-ydpi="180" inkscape:connector-curvature="0" sodipodi:nodetypes="zscccszcscsc" fill="#00A651" stroke="#056839" d="
		M416.544,503.612c-6.572,0-12.044,5.691-12.044,11.866c0,2.778,1.563,6.309,2.693,8.746l9.307,17.872l9.262-17.872
		c1.13-2.438,2.737-5.791,2.737-8.746C428.499,509.303,423.116,503.612,416.544,503.612L416.544,503.612z M416.544,510.767
		c2.585,0.017,4.679,2.121,4.679,4.71s-2.094,4.662-4.679,4.679c-2.584-0.016-4.679-2.09-4.679-4.679
		C411.865,512.889,413.96,510.783,416.544,510.767z"/>
	<text transform="matrix(1 0 0 1 403.7502 489.3616)" font-family="'ArialMT'" font-size="4">Use this one.</text>
	<text transform="matrix(1 0 0 1 403.7502 494.3616)" font-family="'ArialMT'" font-size="4">Select it and the area around with box select.</text>
	<text transform="matrix(1 0 0 1 403.7502 499.3616)" font-family="'ArialMT'" font-size="4">should be exactly 25x41 at 90dpi</text>
	<text transform="matrix(1 0 0 1 408.7073 563.7512)" font-family="'ArialMT'" font-size="4">How to do the inset border:</text>
	<text transform="matrix(1 0 0 1 408.7073 568.7512)" font-family="'ArialMT'" font-size="4">Delete the existing inset border. Select the background, duplicate.</text>
	<text transform="matrix(1 0 0 1 408.7073 573.7512)" font-family="'ArialMT'" font-size="4">Path, Dynamic offset.</text>
	<text transform="matrix(1 0 0 1 408.7073 578.7512)" font-family="'ArialMT'" font-size="4">Fill: None, Stroke Paint: RGBA #ffffff1f </text>
	<text transform="matrix(1 0 0 1 408.7073 583.7512)" font-family="'ArialMT'" font-size="4">Zoom down to the top and grab the diamond, drag it down and fiddle it untill it looks in line</text>
	<text transform="matrix(1 0 0 1 408.7073 588.7512)" font-family="'ArialMT'" font-size="4">with the main color layers border.</text>
	
		<image overflow="visible" width="26" height="41" xlink:href="marker-icon-green.png"  transform="matrix(1 0 0 1 460.5471 507.6809)">
	</image>
	
		<rect id="rect3771_1_" x="512.333" y="470.362" inkscape:export-filename="C:\Users\dave.STK\Desktop\git\Leaflet\Leaflet\dist\images\marker-icon@2x.png" inkscape:export-xdpi="180" inkscape:export-ydpi="180" fill="#FFFFFF" fill-opacity="0" width="25" height="41">
	</rect>
	
		<rect id="rect3773_1_" x="518.612" y="475.574" inkscape:export-filename="C:\Users\dave.STK\Desktop\git\Leaflet\Leaflet\dist\images\marker-icon@2x.png" inkscape:export-xdpi="180" inkscape:export-ydpi="180" fill="#FFFFFF" width="12.625" height="14.5">
	</rect>
	
		<path id="path3873_1_" inkscape:export-filename="C:\Users\dave.STK\Desktop\git\Leaflet\Leaflet\dist\images\marker-icon@2x.png" inkscape:export-xdpi="180" inkscape:export-ydpi="180" inkscape:connector-curvature="0" sodipodi:nodetypes="zscccszcscsc" fill="#D7DF21" stroke="#056839" d="
		M524.877,471.612c-6.572,0-12.044,5.691-12.044,11.866c0,2.778,1.563,6.309,2.693,8.746l9.307,17.872l9.262-17.872
		c1.13-2.438,2.737-5.791,2.737-8.746C536.832,477.303,531.449,471.612,524.877,471.612L524.877,471.612z M524.877,478.767
		c2.585,0.017,4.679,2.121,4.679,4.71s-2.094,4.662-4.679,4.679c-2.584-0.016-4.679-2.09-4.679-4.679
		C520.198,480.889,522.293,478.783,524.877,478.767z"/>
	
		<image overflow="visible" width="26" height="41" xlink:href="marker-icon-yellow.png"  transform="matrix(1 0 0 1 553.2141 469.1809)">
	</image>
</g>
</svg>
